<svg width="80" height="80" viewBox="0 0 80 80" fill="none" xmlns="http://www.w3.org/2000/svg">
<g clip-path="url(#clip0_358_23356)">
<path d="M17.1513 27.4423L20.8478 52.3497C20.9113 52.7774 20.5806 53.1616 20.1491 53.1616H14.6403C14.2714 53.1616 13.9647 52.8772 13.9361 52.5086L13.6495 48.8112C13.6328 48.5962 13.4539 48.4303 13.2387 48.4303H11.5542C11.3405 48.4303 11.1623 48.594 11.1437 48.8074L10.8218 52.5152C10.7901 52.8809 10.4845 53.1616 10.1181 53.1616H4.50923C4.08221 53.1616 3.75283 52.7849 3.80898 52.3608L7.1063 27.4533C7.15287 27.1015 7.45232 26.8386 7.80654 26.8386H16.4526C16.8026 26.8386 17.0998 27.0954 17.1513 27.4423ZM13.3886 43.305C13.1646 41.3287 12.9401 39.0573 12.7153 36.4909C12.6722 35.9988 11.9594 35.9837 11.8961 36.4735C11.523 39.3628 11.266 41.644 11.1253 43.317C11.1051 43.5577 11.2949 43.764 11.536 43.764H12.9792C13.2252 43.764 13.4163 43.5499 13.3886 43.305Z" fill="#587DFF"/>
<path d="M37.3729 38.301H31.9541C31.564 38.301 31.2478 37.9841 31.2478 37.5932V33.7261C31.2478 32.3958 31.1748 31.5655 31.0287 31.2355C30.8827 30.9057 30.5606 30.7407 30.0632 30.7407C29.5007 30.7407 29.1437 30.9415 28.9922 31.3422C28.8405 31.7433 28.7651 32.6104 28.7651 33.9437V46.1703C28.7651 47.4493 28.8405 48.2839 28.9922 48.6741C29.1437 49.0643 29.4845 49.2594 30.0145 49.2594C30.523 49.2594 30.8556 49.0641 31.0125 48.6728C31.1691 48.2817 31.2478 47.3634 31.2478 45.9183V43.3174C31.2478 42.9265 31.564 42.6096 31.9541 42.6096H37.3729C37.763 42.6096 38.0793 42.9265 38.0793 43.3174V43.6355C38.0793 46.3599 37.887 48.2923 37.5032 49.432C37.1192 50.5718 36.27 51.5703 34.9556 52.428C33.6412 53.2857 32.021 53.7143 30.0957 53.7143C28.0941 53.7143 26.4446 53.351 25.1465 52.625C23.8484 51.899 22.9883 50.8934 22.5664 49.609C22.1445 48.3246 21.9336 46.3925 21.9336 43.8127V36.1223C21.9336 34.2257 21.9985 32.8031 22.1283 31.8544C22.2581 30.906 22.6449 29.9928 23.2885 29.1148C23.9319 28.2368 24.8244 27.5458 25.966 27.0418C27.1072 26.5378 28.4186 26.2858 29.901 26.2858C31.9131 26.2858 33.5736 26.6754 34.8826 27.4548C36.1913 28.2344 37.0513 29.2061 37.4626 30.3694C37.8737 31.533 38.0793 33.3434 38.0793 35.8004V37.5932C38.0793 37.9841 37.763 38.301 37.3729 38.301Z" fill="#587DFF"/>
<path d="M61.6079 27.5464V52.4538C61.6079 52.8447 61.2917 53.1616 60.9015 53.1616H56.3425C55.9525 53.1616 55.6363 52.8449 55.6361 52.4542L55.6311 41.5576C55.6309 41.0427 54.879 40.9927 54.8107 41.503L53.3332 52.5479C53.2862 52.8993 52.9869 53.1616 52.6331 53.1616H49.6275C49.2764 53.1616 48.9786 52.9033 48.9284 52.5552L47.3261 41.4573C47.2529 40.9504 46.5064 41.004 46.5062 41.5162L46.5011 52.4542C46.5009 52.8449 46.1847 53.1616 45.7947 53.1616H41.2357C40.8456 53.1616 40.5293 52.8447 40.5293 52.4538V27.5464C40.5293 27.1555 40.8456 26.8386 41.2357 26.8386L48.7682 26.8386C49.1152 26.8386 49.4108 27.0907 49.4657 27.434C49.6974 28.8834 49.9355 30.5501 50.1796 32.4346L50.7163 36.1384C50.7851 36.6138 51.4719 36.608 51.5328 36.1315L52.6408 27.4565C52.6859 27.1033 52.986 26.8386 53.3414 26.8386H60.9015C61.2917 26.8386 61.6079 27.1555 61.6079 27.5464Z" fill="#587DFF"/>
<path d="M65.0579 26.8386H75.0364C75.4265 26.8386 75.7428 27.1555 75.7428 27.5464V31.3987C75.7428 31.7896 75.4265 32.1065 75.0364 32.1065H71.5951C71.3675 32.1065 71.183 32.2913 71.183 32.5193V36.6851C71.183 36.9131 71.3675 37.0979 71.5951 37.0979H74.7443C75.1344 37.0979 75.4507 37.4148 75.4507 37.8057V41.3979C75.4507 41.7887 75.1344 42.1056 74.7443 42.1056H71.5951C71.3675 42.1056 71.183 42.2905 71.183 42.5185V47.4809C71.183 47.7089 71.3675 47.8938 71.5951 47.8938H75.4908C75.8809 47.8938 76.1971 48.2106 76.1971 48.6015V52.4538C76.1971 52.8447 75.8809 53.1616 75.4908 53.1616H65.0579C64.6678 53.1616 64.3516 52.8447 64.3516 52.4538V27.5464C64.3516 27.1555 64.6678 26.8386 65.0579 26.8386Z" fill="#587DFF"/>
</g>
<defs>
<clipPath id="clip0_358_23356">
<rect width="72.3934" height="27.4286" fill="white" transform="translate(3.80273 26.2858)"/>
</clipPath>
</defs>
</svg>
